<?xml version="1.0" encoding="utf-8"?>
<!-- Generator: Adobe Illustrator 27.5.0, SVG Export Plug-In . SVG Version: 6.00 Build 0)  -->
<svg version="1.1" id="Layer_1" xmlns="http://www.w3.org/2000/svg" xmlns:xlink="http://www.w3.org/1999/xlink" x="0px" y="0px"
	 viewBox="0 0 261.1 172.9" style="enable-background:new 0 0 261.1 172.9;" xml:space="preserve">
<style type="text/css">
	.st0{fill:#F2E3C0;}
	.st1{fill:none;stroke:#000000;stroke-width:2;stroke-miterlimit:10;}
</style>
<g id="_404siden-vin" transform="translate(0 0.217)">
	<path id="Path_16463" class="st0" d="M114.1,94.9c4.1,1.6,8.2,0.5,10.7-0.4c15.7-5.3,25.9-20.3,31.6-17.7c2.3,1.1,3.1,4.7,3,7
		c-0.7,12.5-32.9,21.1-39.7,19.7c-0.8-0.2-3-0.9-4.7,0.2c-2.3,1.6-2.6,5.9-1.5,9.2c0.3,1,1.4,3.2,7.6,7.4c2.8,1.8,5.7,3.4,8.7,4.8
		c8.9,4.2,13.2,6.3,17.1,9.2c5.2,3.9,11.2,8.1,10.8,13.1s-7,8.3-5.7,11.2c0.7,1.6,3,1.4,3.1,1.9c0.1,1.8-21.8,6.7-52.4,6.6
		c-23-0.1-28.3,0.1-36.9-3.4c-5.5-2.3-18.8-7.9-21.5-19c-3.1-12.3,9.2-21.5,5.5-26.6c-5.5-7.5-32.6,10.3-40.8,1.9
		C3,113.8,9.3,94.8,20.6,83.6c14.1-14,34.3-13.3,41.4-13.1c4.3,0.1,12.4,0.5,21.6,4.3c5.1,2.1,17.2,7.2,24.6,15.7
		C109.7,92.5,111.7,94.1,114.1,94.9z"/>
	<line id="Line_16" class="st1" x1="247.9" y1="36.7" x2="178.1" y2="52.3"/>
	<line id="Line_17" class="st1" x1="241.5" y1="7.9" x2="254.4" y2="65.6"/>
	<path id="Path_16464" class="st1" d="M165.4,32.4c-10.3-8.4-21.3-9.9-28.3-10.6c-15-1.8-27.2,2.2-34.1,5.3
		c6,26.5,12.2,53.1,18.3,79.5c3.8,0,8.7-0.5,14.4-1.8c5.6-1.3,10.9-3.3,16-6c5.5-2.9,13.8-7.9,20.4-17.7
		C183.1,64.6,180.6,44.8,165.4,32.4z"/>
	<path id="Path_16465" class="st0" d="M47.4,124.6c0.4-0.5,2.2-3.2,1-5c-0.9-1.3-3.2-1.5-4.6-0.5c-1.9,1.4-1.3,4.1-1.2,4.6
		c0.1,0.3,0.6,2.6,2,2.8C45.9,126.7,46.9,125.3,47.4,124.6z"/>
	<path id="Path_16466" class="st0" d="M47.9,154.5c-0.3-0.6-1.9-3.3-4.2-2.9c-1.5,0.3-2.7,2.3-2.3,4c0.5,2.3,3.2,2.8,3.7,2.9
		c0.3,0.1,2.6,0.5,3.4-0.8C49.2,156.7,48.4,155.2,47.9,154.5z"/>
</g>
</svg>
