<?xml version="1.0" encoding="utf-8"?>
<!-- Generator: Adobe Illustrator 27.5.0, SVG Export Plug-In . SVG Version: 6.00 Build 0)  -->
<svg version="1.1" id="Layer_1" xmlns="http://www.w3.org/2000/svg" xmlns:xlink="http://www.w3.org/1999/xlink" x="0px" y="0px"
	 viewBox="0 0 261.1 170.6" style="enable-background:new 0 0 261.1 170.6;" xml:space="preserve">
<style type="text/css">
	.st0{fill:#852439;}
	.st1{fill:none;stroke:#000000;stroke-width:2;stroke-miterlimit:10;}
</style>
<path class="st0" d="M147.7,92.1c-4.2,1.6-8.4,0.5-11-0.4c-16.1-5.4-26.6-20.9-32.5-18.2c-2.4,1.1-3.2,4.8-3.1,7.2
	c0.7,12.8,33.8,21.7,40.8,20.2c0.8-0.2,3.1-0.9,4.8,0.2c2.4,1.6,2.7,6.1,1.5,9.4c-0.3,1-1.4,3.3-7.8,7.6c-3.9,2.6-7,4-8.9,4.9
	c-9.1,4.3-13.6,6.5-17.6,9.5c-5.3,4-11.5,8.3-11.1,13.5c0.4,5.2,7.2,8.5,5.9,11.5c-0.7,1.6-3.1,1.4-3.2,2
	c-0.1,1.9,22.4,6.9,53.8,6.8c23.6-0.1,29.1,0.1,37.9-3.5c5.7-2.4,19.3-8.1,22.1-19.5c3.2-12.6-9.5-22.1-5.7-27.3
	c5.6-7.7,33.5,10.6,41.9,2c6.3-6.5-0.2-26-11.8-37.5c-14.5-14.4-35.2-13.7-42.5-13.5c-4.4,0.1-12.7,0.5-22.2,4.4
	c-5.2,2.2-17.7,7.4-25.3,16.1C152.8,88.7,151,90.9,147.7,92.1z"/>
<line class="st1" x1="10.2" y1="32.3" x2="81.9" y2="48.3"/>
<line class="st1" x1="16.8" y1="2.7" x2="3.6" y2="62"/>
<path class="st1" d="M95,27.9c10.6-8.6,21.9-10.2,29.1-10.9c15.4-1.8,27.9,2.3,35,5.4c-6.2,27.2-12.5,54.5-18.8,81.7
	c-3.9,0-8.9-0.5-14.8-1.8c-8.5-2-14.5-5.2-16.4-6.2c-5.7-3-14.2-8.1-21-18.2C76.8,60.9,79.4,40.6,95,27.9z"/>
<path class="st0" d="M216.2,122.6c-0.4-0.5-2.3-3.3-1-5.1c0.9-1.3,3.3-1.5,4.7-0.5c2,1.4,1.3,4.2,1.2,4.7c-0.1,0.3-0.6,2.7-2.1,2.9
	C217.7,124.7,216.7,123.3,216.2,122.6z"/>
<path class="st0" d="M215.7,153.3c0.3-0.6,2-3.4,4.3-3c1.5,0.3,2.8,2.4,2.4,4.1c-0.5,2.4-3.3,2.9-3.8,3c-0.3,0.1-2.7,0.5-3.5-0.8
	C214.3,155.5,215.2,154,215.7,153.3z"/>
</svg>
