<?xml version="1.0" encoding="utf-8"?>
<!-- Generator: Adobe Illustrator 27.5.0, SVG Export Plug-In . SVG Version: 6.00 Build 0)  -->
<svg version="1.1" id="Layer_1" xmlns="http://www.w3.org/2000/svg" xmlns:xlink="http://www.w3.org/1999/xlink" x="0px" y="0px"
	 viewBox="0 0 1612.7 2640.1" style="enable-background:new 0 0 1612.7 2640.1;" xml:space="preserve">
<style type="text/css">
	.st0{fill:#862439;}
	.st1{fill:none;stroke:#000000;stroke-width:3;stroke-miterlimit:10;}
	.st2{fill:#F2E3C0;}
	.st3{fill:none;stroke:#000000;stroke-width:6.0794;stroke-miterlimit:10;}
</style>
<g id="_404siden-vin" transform="translate(-2.624 736.444)">
	<path id="Path_16463" class="st0" d="M591.9,1649.2c-14.4,5.5-28.7,1.7-37.6-1.4c-55.1-18.5-91-71.5-111.2-62.3
		c-8.2,3.8-10.9,16.4-10.6,24.6c2.4,43.8,115.7,74.3,139.6,69.1c2.7-0.7,10.6-3.1,16.4,0.7c8.2,5.5,9.2,20.9,5.1,32.2
		c-1,3.4-4.8,11.3-26.7,26c-9.7,6.4-19.9,12-30.5,16.8c-31.1,14.7-46.5,22.2-60.2,32.5c-18.1,13.7-39.4,28.4-38,46.2
		c1.4,17.8,24.6,29.1,20.2,39.4c-2.4,5.5-10.6,4.8-10.9,6.8c-0.3,6.5,76.7,23.6,184.1,23.3c80.8-0.3,99.6,0.3,129.7-12
		c19.5-8.2,66-27.7,75.6-66.7c10.9-43.1-32.5-75.6-19.5-93.4c19.2-26.3,114.6,36.3,143.4,6.8c21.6-22.2-0.7-89-40.4-128.3
		c-49.6-49.3-120.4-46.9-145.4-46.2c-26,0.2-51.8,5.3-76,15.1c-17.8,7.5-60.6,25.3-86.6,55.1
		C607.3,1640.6,600.1,1646.1,591.9,1649.2z"/>
	<line id="Line_16" class="st1" x1="121.3" y1="1444.5" x2="366.7" y2="1499.3"/>
	<line id="Line_17" class="st1" x1="143.9" y1="1343.2" x2="98.7" y2="1546.1"/>
	<path id="Path_16464" class="st1" d="M411.5,1429.5c36.3-29.4,74.9-34.9,99.6-37.3c40.9-4.5,82.2,1.8,119.8,18.5
		c-21.2,93.1-42.8,186.5-64.3,279.6c-17.1-0.2-34-2.3-50.6-6.2c-19.5-4.6-38.4-11.7-56.1-21.2c-19.5-10.3-48.6-27.7-71.9-62.3
		C349.2,1542.4,358.1,1472.9,411.5,1429.5z"/>
	<path id="Path_16465" class="st0" d="M826.3,1753.5c-1.4-1.7-7.9-11.3-3.4-17.5c3.1-4.5,11.3-5.1,16.1-1.7
		c6.8,4.8,4.5,14.4,4.1,16.1c-0.3,1-2.1,9.2-7.2,9.9C831.4,1760.7,828,1755.9,826.3,1753.5z"/>
	<path id="Path_16466" class="st0" d="M824.5,1858.6c1-2.1,6.8-11.6,14.7-10.3c5.1,1,9.6,8.2,8.2,14c-1.7,8.2-11.3,9.9-13,10.3
		c-1,0.3-9.2,1.7-12-2.7C819.8,1866.1,822.8,1861,824.5,1858.6z"/>
</g>
<g id="_404siden-vin-2" transform="translate(115.748 0.217)">
	<path id="Path_16463-2" class="st2" d="M1225.8,196.6c19.3,7.3,38.6,2.3,50.5-1.8c74-24.8,122.2-96,149.3-83.6
		c11,5.1,14.7,22.1,14.2,33.1c-3.2,58.8-155.3,99.7-187.5,92.8c-3.7-0.9-14.2-4.1-22.1,0.9c-11,7.3-12.4,28-6.9,43.2
		c1.4,4.6,6.4,15.2,35.8,34.9c13,8.6,26.7,16.1,40.9,22.5c41.8,19.8,62.5,29.9,80.9,43.6c24.4,18.4,52.8,38.1,51,62
		c-1.8,23.9-33.1,39.1-27.1,52.8c3.2,7.3,14.2,6.4,14.7,9.2c0.5,8.7-102.9,31.7-247.2,31.2c-108.4-0.5-133.7,0.5-174.1-16.1
		c-26.2-11-88.7-37.2-101.5-89.6c-14.7-57.9,43.6-101.5,26.2-125.4c-25.7-35.4-153.9,48.7-192.5,9.2
		c-28.9-29.9,0.9-119.5,54.2-172.3c66.6-66.2,161.7-62.9,195.3-62c35,0.3,69.6,7.1,102,20.2c23.9,10.1,81.3,34,116.2,74
		C1205.1,185.1,1214.7,192.4,1225.8,196.6z"/>
	<line id="Line_16-2" class="st3" x1="1857.6" y1="-78.2" x2="1528.2" y2="-4.7"/>
	<line id="Line_17-2" class="st3" x1="1827.3" y1="-214.2" x2="1887.9" y2="58.3"/>
	<path id="Path_16464-2" class="st1" d="M1468-98.4c-48.7-39.5-100.6-46.9-133.7-50.1c-54.9-6.1-110.3,2.5-160.8,24.8
		c28.5,125,57.4,250.4,86.4,375.4c22.9-0.3,45.7-3.1,68-8.3c26.2-6.2,51.6-15.8,75.4-28.5c26.2-13.8,65.2-37.2,96.5-83.6
		C1551.6,53.2,1539.6-40,1468-98.4z"/>
	<path id="Path_16465-2" class="st2" d="M911.1,336.7c1.8-2.3,10.6-15.2,4.6-23.4c-4.1-6-15.2-6.9-21.6-2.3
		c-9.2,6.4-6,19.3-5.5,21.6c0.5,1.4,2.8,12.4,9.6,13.3C904.2,346.4,908.8,339.9,911.1,336.7z"/>
	<path id="Path_16466-2" class="st2" d="M913.4,477.8c-1.4-2.8-9.2-15.6-19.8-13.8c-6.9,1.4-12.9,11-11,18.8
		c2.3,11,15.2,13.3,17.5,13.8c1.4,0.5,12.4,2.3,16.1-3.7C919.8,487.9,915.7,481,913.4,477.8z"/>
</g>
</svg>
