<?xml version="1.0" encoding="utf-8"?>
<!-- Generator: Adobe Illustrator 27.5.0, SVG Export Plug-In . SVG Version: 6.00 Build 0)  -->
<svg version="1.1" id="Layer_1" xmlns="http://www.w3.org/2000/svg" xmlns:xlink="http://www.w3.org/1999/xlink" x="0px" y="0px"
	 viewBox="0 0 1921 1080" style="enable-background:new 0 0 1921 1080;" xml:space="preserve">
<style type="text/css">
	.st0{fill:#852439;}
	.st1{fill:none;stroke:#000000;stroke-width:2.105;stroke-miterlimit:10;}
	.st2{fill:#F2E3C0;}
</style>
<g id="_404siden-vin" transform="translate(-2.624 742.81)">
	<path id="Path_16463" class="st0" d="M325.5,127.7c-12.8,4.9-25.6,1.5-33.6-1.2c-49.2-16.5-81.2-63.8-99.2-55.6
		c-7.3,3.4-9.8,14.7-9.5,22c2.1,39.1,103.2,66.3,124.6,61.7c2.4-0.6,9.5-2.7,14.7,0.6c7.3,4.9,8.2,18.6,4.6,28.7
		c-0.9,3.1-4.3,10.1-23.8,23.2c-8.6,5.7-17.7,10.7-27.2,15c-27.8,13.1-41.5,19.8-53.7,29c-16.2,12.2-35.1,25.3-33.9,41.2
		c1.2,15.9,22,26,18,35.1c-2.1,4.9-9.5,4.3-9.8,6.1c-0.3,5.8,68.4,21.1,164.3,20.8c72.1-0.3,88.8,0.3,115.7-10.7
		c17.4-7.3,58.9-24.7,67.5-59.5c9.8-38.5-29-67.5-17.4-83.4c17.1-23.5,102.3,32.4,127.9,6.1c19.2-19.8-0.6-79.4-36-114.5
		c-44.3-44-107.5-41.8-129.8-41.2c-13.4,0.3-38.8,1.5-67.8,13.4c-15.9,6.7-54,22.6-77.2,49.2C339.3,120,332.9,124.9,325.5,127.7z"/>
	<line id="Line_16" class="st1" x1="-94.3" y1="-54.9" x2="124.6" y2="-6.1"/>
	<line id="Line_17" class="st1" x1="-74.2" y1="-145.3" x2="-114.5" y2="35.8"/>
	<path id="Path_16464" class="st1" d="M164.6-68.3c32.4-26.3,66.9-31.1,88.8-33.3c47-5.5,85.2,7,106.9,16.5
		c-18.9,83-38.2,166.4-57.4,249.4c-11.9,0-27.2-1.5-45.2-5.5c-17.4-4.1-34.3-10.5-50.1-18.9c-17.4-9.2-43.4-24.7-64.1-55.6
		C109,32.4,117-29.6,164.6-68.3z"/>
	<path id="Path_16465" class="st0" d="M534.6,220.8c-1.2-1.5-7-10.1-3.1-15.6c2.7-4,10.1-4.6,14.4-1.5c6.1,4.3,4,12.8,3.7,14.4
		c-0.3,0.9-1.8,8.2-6.4,8.9C539.2,227.2,536.2,222.9,534.6,220.8z"/>
	<path id="Path_16466" class="st0" d="M533.1,314.5c0.9-1.8,6.1-10.4,13.1-9.2c4.6,0.9,8.5,7.3,7.3,12.5c-1.5,7.3-10.1,8.9-11.6,9.2
		c-0.9,0.3-8.2,1.5-10.7-2.4C528.8,321.3,531.6,316.7,533.1,314.5z"/>
</g>
<g id="_404siden-vin-2" transform="translate(1505.976 0.217)">
	<path id="Path_16463-2" class="st2" d="M242.8,125.5c12.8,4.9,25.6,1.5,33.6-1.2c49.2-16.5,81.2-63.8,99.2-55.6
		c7.3,3.4,9.8,14.7,9.5,22c-2.1,39.1-103.2,66.3-124.6,61.7c-2.4-0.6-9.5-2.7-14.7,0.6c-7.3,4.9-8.2,18.6-4.6,28.7
		c0.9,3.1,4.3,10.1,23.8,23.2c8.6,5.7,17.7,10.7,27.2,15c27.8,13.1,41.5,19.8,53.7,29c16.2,12.2,35.1,25.3,33.9,41.2
		c-1.2,15.9-22,26-18,35.1c2.1,4.9,9.5,4.3,9.8,6.1c0.3,5.8-68.4,21.1-164.3,20.8c-72.1-0.3-88.8,0.3-115.7-10.7
		c-17.4-7.3-58.9-24.7-67.5-59.5c-9.8-38.5,29-67.5,17.4-83.4c-17.1-23.5-102.3,32.4-127.9,6.1c-19.2-19.8,0.6-79.4,36-114.5
		C-6,46.1,57.2,48.2,79.5,48.8c13.4,0.3,38.8,1.5,67.8,13.4c15.9,6.7,54,22.6,77.2,49.2C229.1,117.8,235.5,122.7,242.8,125.5z"/>
	<line id="Line_16-2" class="st1" x1="662.7" y1="-57.1" x2="443.7" y2="-8.2"/>
	<line id="Line_17-2" class="st1" x1="642.5" y1="-147.5" x2="682.8" y2="33.6"/>
	<path id="Path_16464-2" class="st1" d="M403.8-70.5c-32.4-26.3-66.9-31.1-88.8-33.3c-47-5.5-85.2,7-106.9,16.5
		c18.9,83,38.2,166.4,57.4,249.4c11.9,0,27.2-1.5,45.2-5.5c17.4-4.1,34.3-10.5,50.1-18.9c17.4-9.2,43.4-24.7,64.1-55.6
		C459.3,30.2,451.4-31.7,403.8-70.5z"/>
	<path id="Path_16465-2" class="st2" d="M33.7,218.6c1.2-1.5,7-10.1,3.1-15.6c-2.7-4-10.1-4.6-14.4-1.5c-6.1,4.3-4,12.8-3.7,14.4
		c0.3,0.9,1.8,8.2,6.4,8.9C29.1,225,32.2,220.7,33.7,218.6z"/>
	<path id="Path_16466-2" class="st2" d="M35.2,312.3c-0.9-1.8-6.1-10.4-13.1-9.2c-4.6,0.9-8.5,7.3-7.3,12.5
		c1.5,7.3,10.1,8.9,11.6,9.2c0.9,0.3,8.2,1.5,10.7-2.4C39.5,319.1,36.8,314.5,35.2,312.3z"/>
</g>
</svg>
