<?xml version="1.0" encoding="utf-8"?>
<!-- Generator: Adobe Illustrator 27.5.0, SVG Export Plug-In . SVG Version: 6.00 Build 0)  -->
<svg version="1.1" id="Layer_1" xmlns="http://www.w3.org/2000/svg" xmlns:xlink="http://www.w3.org/1999/xlink" x="0px" y="0px"
	 viewBox="0 0 176.6 167.9" style="enable-background:new 0 0 176.6 167.9;" xml:space="preserve">
<style type="text/css">
	.st0{fill:#6F3E1B;stroke:#000000;stroke-miterlimit:10;}
	.st1{fill:#F4E0C3;stroke:#000000;stroke-miterlimit:10;}
	.st2{fill:#E5C3A1;stroke:#000000;stroke-miterlimit:10;}
</style>
<path class="st0" d="M167.7,44.7c-0.1-9.9-3.2-16.4-6.1-20.5c-3.1-4.4-10.4-9.2-12.9-18.6c-0.1-0.4-0.2-0.7-0.2-0.9
	c0,0.2-0.1,0.5-0.3,0.9c-2.7,9.4-9.8,14.3-12.9,18.6c-2.9,4.2-6,10.7-6.1,20.5"/>
<path class="st0" d="M128.3,45c-0.1-9.9-3.2-16.4-6.2-20.5c-3.1-4.4-10.4-9.2-12.9-18.6c-0.1-0.4-0.2-0.7-0.2-0.9
	c0,0.2-0.1,0.5-0.3,0.9c-2.7,9.4-9.8,14.3-12.9,18.6c-2.9,4.2-6,10.7-6.1,20.5"/>
<path class="st0" d="M89.8,44.9c-0.1-9.9-3.2-16.4-6.1-20.5c-3.1-4.4-10.4-9.2-12.9-18.6c-0.1-0.4-0.2-0.7-0.2-0.9
	c0,0.2-0.1,0.5-0.3,0.9c-2.7,9.4-9.8,14.3-12.9,18.6c-2.9,4.2-6,10.7-6.1,20.5"/>
<path class="st0" d="M50.3,45.2c-0.1-9.9-3.2-16.4-6.1-20.5C41,20.2,33.8,15.4,31.3,6.1c-0.1-0.4-0.2-0.7-0.2-0.9
	c0,0.2-0.1,0.5-0.3,0.9C28.1,15.5,21,20.3,18,24.7c-2.9,4.2-6,10.7-6.1,20.5"/>
<path class="st1" d="M166.3,164H13.1c-3.3,0-6-2.7-6-6V49.4c0-3.3,2.7-6,6-6h153.2c3.3,0,6,2.7,6,6V158
	C172.3,161.3,169.7,164,166.3,164z"/>
<path class="st2" d="M172.3,85.9c0-11.9-11.9-21.6-26.1-22.2c-15.3-0.6-29,9.5-29,22.3v-0.1c0-11.9-11.9-21.6-26.1-22.2
	c-15.3-0.6-29,9.5-29,22.3v-0.1c0-11.9-11.9-21.6-26.1-22.2c-15.3-0.6-29,9.5-29,22.3"/>
<polyline class="st0" points="172.4,94.4 7.2,94.5 7.1,86 172.3,85.9 "/>
<path class="st2" d="M172.3,136.8c0-11.9-11.9-21.6-26.1-22.2c-15.3-0.6-29,9.5-29,22.3v-0.1c0-11.9-11.9-21.6-26.1-22.2
	c-15.3-0.6-29,9.5-29,22.3v-0.1c0-11.9-11.9-21.6-26.1-22.2c-15.3-0.6-29,9.5-29,22.3"/>
<polyline class="st0" points="172.3,145.3 7.2,145.4 7.1,136.9 172.3,136.8 "/>
</svg>
