<?xml version="1.0" encoding="utf-8"?>
<!-- Generator: Adobe Illustrator 27.5.0, SVG Export Plug-In . SVG Version: 6.00 Build 0)  -->
<svg version="1.1" id="Layer_1" xmlns="http://www.w3.org/2000/svg" xmlns:xlink="http://www.w3.org/1999/xlink" x="0px" y="0px"
	 viewBox="0 0 595.28 841.89" style="enable-background:new 0 0 595.28 841.89;" xml:space="preserve">
<style type="text/css">
	.st0{fill:#F4D7DC;}
	.st1{fill:none;stroke:#000000;stroke-miterlimit:10;}
</style>
<path class="st0" d="M294.92,444.82c-7.02-5.49-10.49-11.88-12.01-14.73c-2.56-4.81-3.86-9.21-4.56-12.36
	c6.21,3.35,15.19,6.79,24.68,4.6c11.07-2.55,14.26-10.77,25.31-15.17c6.63-2.64,16.85-4.21,32.19,1.27
	c-0.34,2.4-0.93,5.64-2.02,9.37c-1.02,3.5-2.8,9.44-6.99,15.86c-1.74,2.67-4.9,7.42-10.52,11.68c-2.88,2.19-11.19,8.49-23.23,8.32
	C306.01,453.49,298.03,447.25,294.92,444.82z"/>
<line class="st1" x1="318.21" y1="527" x2="318.21" y2="453.52"/>
<line class="st1" x1="287.86" y1="527" x2="348.57" y2="527"/>
<path class="st1" d="M295.45,445.24c-10.72-8.5-14.78-19.24-17.09-25.98c-5.03-14.66-3.79-27.77-2.4-35.3
	c27.94,0.15,55.87,0.31,83.81,0.46c0.79,3.77,1.52,8.82,1.47,14.79c-0.07,8.73-1.79,15.3-2.39,17.47
	c-1.72,6.2-4.77,15.62-13.23,24.48C331.57,455.85,311.19,457.72,295.45,445.24z"/>
</svg>
