<?xml version="1.0" encoding="utf-8"?>
<!-- Generator: Adobe Illustrator 27.5.0, SVG Export Plug-In . SVG Version: 6.00 Build 0)  -->
<svg version="1.1" id="Layer_1" xmlns="http://www.w3.org/2000/svg" xmlns:xlink="http://www.w3.org/1999/xlink" x="0px" y="0px"
	 viewBox="0 0 95.1 152.5" style="enable-background:new 0 0 95.1 152.5;" xml:space="preserve">
<style type="text/css">
	.st0{fill:#852439;}
	.st1{fill:none;stroke:#000000;stroke-miterlimit:10;}
</style>
<path class="st0" d="M24.5,65.3c-7-5.5-10.5-11.9-12-14.7c-2.6-4.8-3.9-9.2-4.6-12.4c6.2,3.4,15.2,6.8,24.7,4.6
	C43.7,40.2,46.9,32,57.9,27.6c6.6-2.6,16.9-4.2,32.2,1.3c-0.3,2.4-0.9,5.6-2,9.4c-1,3.5-2.8,9.4-7,15.9c-1.7,2.7-4.9,7.4-10.5,11.7
	c-2.9,2.2-11.2,8.5-23.2,8.3C35.6,74,27.6,67.7,24.5,65.3z"/>
<line class="st1" x1="47.8" y1="147.5" x2="47.8" y2="74"/>
<line class="st1" x1="17.5" y1="147.5" x2="78.2" y2="147.5"/>
<path class="st1" d="M25,65.7C14.3,57.2,10.3,46.5,8,39.7C2.9,25.1,4.2,12,5.6,4.4c27.9,0.1,55.9,0.3,83.8,0.5
	c0.8,3.8,1.5,8.8,1.5,14.8C90.8,28.4,89,35,88.4,37.1c-1.7,6.2-4.8,15.6-13.2,24.5C61.2,76.3,40.8,78.2,25,65.7z"/>
</svg>
