<?xml version="1.0" encoding="utf-8"?>
<!-- Generator: Adobe Illustrator 27.5.0, SVG Export Plug-In . SVG Version: 6.00 Build 0)  -->
<svg version="1.1" id="Layer_1" xmlns="http://www.w3.org/2000/svg" xmlns:xlink="http://www.w3.org/1999/xlink" x="0px" y="0px"
	 viewBox="0 0 595.28 841.89" style="enable-background:new 0 0 595.28 841.89;" xml:space="preserve">
<style type="text/css">
	.st0{fill:#6F3E1B;stroke:#000000;stroke-miterlimit:10;}
	.st1{fill:#F4E0C3;stroke:#000000;stroke-miterlimit:10;}
	.st2{fill:#E5C3A1;stroke:#000000;stroke-miterlimit:10;}
</style>
<path class="st0" d="M422.34,407.64c-0.09-9.93-3.2-16.4-6.15-20.55c-3.15-4.43-10.42-9.22-12.86-18.59
	c-0.1-0.4-0.18-0.73-0.23-0.94c-0.05,0.21-0.14,0.54-0.26,0.94c-2.73,9.44-9.83,14.26-12.86,18.59c-2.91,4.17-6.01,10.66-6.15,20.55
	"/>
<path class="st0" d="M382.93,407.97c-0.09-9.93-3.2-16.4-6.15-20.55c-3.15-4.43-10.42-9.22-12.86-18.59
	c-0.1-0.4-0.18-0.73-0.23-0.94c-0.05,0.21-0.14,0.54-0.26,0.94c-2.73,9.44-9.83,14.26-12.86,18.59c-2.91,4.17-6.01,10.66-6.15,20.55
	"/>
<path class="st0" d="M344.43,407.8c-0.09-9.93-3.2-16.4-6.15-20.55c-3.15-4.43-10.42-9.22-12.86-18.59c-0.1-0.4-0.18-0.73-0.23-0.94
	c-0.05,0.21-0.14,0.54-0.26,0.94c-2.73,9.44-9.83,14.26-12.86,18.59c-2.91,4.17-6.01,10.66-6.15,20.55"/>
<path class="st0" d="M305.01,408.13c-0.09-9.93-3.2-16.4-6.15-20.55c-3.15-4.43-10.42-9.22-12.86-18.59
	c-0.1-0.4-0.18-0.73-0.23-0.94c-0.05,0.21-0.14,0.54-0.26,0.94c-2.73,9.44-9.83,14.26-12.86,18.59c-2.91,4.17-6.01,10.66-6.15,20.55
	"/>
<path class="st1" d="M421.02,526.95H267.8c-3.31,0-5.98-2.68-5.98-5.98V412.29c0-3.31,2.68-5.98,5.98-5.98h153.23
	c3.31,0,5.98,2.68,5.98,5.98v108.67C427.01,524.27,424.33,526.95,421.02,526.95z"/>
<path class="st2" d="M427.01,448.81c-0.02-11.89-11.86-21.61-26.07-22.19c-15.27-0.63-28.98,9.45-28.99,22.26v-0.07
	c-0.02-11.89-11.86-21.61-26.07-22.19c-15.27-0.63-28.98,9.45-28.99,22.26v-0.07c-0.02-11.89-11.86-21.61-26.07-22.19
	c-15.27-0.63-28.98,9.45-28.99,22.26"/>
<polyline class="st0" points="427.04,457.32 261.84,457.39 261.81,448.89 427.01,448.81 "/>
<path class="st2" d="M426.99,499.73c-0.02-11.89-11.86-21.61-26.07-22.19c-15.27-0.63-28.98,9.45-28.99,22.26v-0.07
	c-0.02-11.89-11.86-21.61-26.07-22.19c-15.27-0.63-28.98,9.45-28.99,22.26v-0.07c-0.02-11.89-11.86-21.61-26.07-22.19
	c-15.27-0.63-28.98,9.45-28.99,22.26"/>
<polyline class="st0" points="427.02,508.24 261.83,508.31 261.8,499.8 426.99,499.73 "/>
</svg>
