<?xml version="1.0" encoding="utf-8"?>
<!-- Generator: Adobe Illustrator 27.5.0, SVG Export Plug-In . SVG Version: 6.00 Build 0)  -->
<svg version="1.1" id="Layer_1" xmlns="http://www.w3.org/2000/svg" xmlns:xlink="http://www.w3.org/1999/xlink" x="0px" y="0px"
	 viewBox="0 0 91 172" style="enable-background:new 0 0 91 172;" xml:space="preserve">
<style type="text/css">
	.st0{fill:#A4C1A5;}
	.st1{fill:none;stroke:#000000;stroke-miterlimit:10;}
</style>
<path class="st0" d="M73.9,162.4c-19.9,0-39.9-0.1-59.8-0.1c-1.4-22-2.8-44.1-4.2-66.1c4,1.8,10.1,3.8,17,2.1
	c9.7-2.3,13.1-10,21.1-14.7c6.1-3.6,16-6.2,32.4-0.2C78.2,109.7,76,136.1,73.9,162.4z"/>
<path class="st1" d="M73.9,162.5c-19.9-0.1-39.9-0.1-59.8-0.2c-2.9-36.8-5.8-73.7-8.7-110.5h78.9C80.8,88.7,77.3,125.6,73.9,162.5z"
	/>
<path class="st1" d="M43.1,51.8c2.2-14.5,4.4-29,6.5-43.5"/>
</svg>
