<?xml version="1.0" encoding="utf-8"?>
<!-- Generator: Adobe Illustrator 27.5.0, SVG Export Plug-In . SVG Version: 6.00 Build 0)  -->
<svg version="1.1" id="Layer_1" xmlns="http://www.w3.org/2000/svg" xmlns:xlink="http://www.w3.org/1999/xlink" x="0px" y="0px"
	 viewBox="0 0 595.28 841.89" style="enable-background:new 0 0 595.28 841.89;" xml:space="preserve">
<style type="text/css">
	.st0{fill:#EB8DAB;}
	.st1{fill:none;stroke:#000000;stroke-miterlimit:10;}
</style>
<path class="st0" d="M318.89,413.27c-19.94-0.05-39.88-0.09-59.82-0.14c-1.4-22.03-2.8-44.06-4.2-66.09
	c3.99,1.81,10.14,3.77,16.98,2.15c9.67-2.29,13.09-9.95,21.09-14.68c6.07-3.59,16-6.22,32.41-0.22
	C323.2,360.62,321.05,386.95,318.89,413.27z"/>
<path class="st1" d="M318.89,413.36c-19.94-0.06-39.88-0.13-59.82-0.19c-2.9-36.83-5.8-73.66-8.7-110.5h78.86
	C325.79,339.57,322.34,376.47,318.89,413.36z"/>
<path class="st1" d="M288.12,302.68c2.18-14.51,4.35-29.01,6.53-43.52"/>
</svg>
